<?xml version="1.0" standalone="no"?>
<!DOCTYPE svg PUBLIC "-//W3C//DTD SVG 20010904//EN"
 "http://www.w3.org/TR/2001/REC-SVG-20010904/DTD/svg10.dtd">
<svg version="1.0" xmlns="http://www.w3.org/2000/svg"
 width="162.000000pt" height="162.000000pt" viewBox="0 0 162.000000 162.000000"
 preserveAspectRatio="xMidYMid meet">
<metadata>
Created by potrace 1.14, written by Peter Selinger 2001-2017
</metadata>
<g transform="translate(0.000000,162.000000) scale(0.100000,-0.100000)"
fill="#000000" stroke="none">
<path d="M860 1445 c-74 -21 -158 -79 -198 -139 -121 -180 -55 -424 138 -515
78 -36 193 -41 272 -11 168 63 264 258 210 428 -57 180 -244 285 -422 237z
m-6 -168 l40 -57 -28 -29 c-32 -33 -35 -33 -118 32 -45 34 -46 45 -12 87 40
47 69 39 118 -33z m140 -118 c46 -36 26 -110 -34 -124 -39 -9 -80 27 -80 71 0
66 61 95 114 53z"/>
<path d="M285 1211 c-146 -35 -224 -195 -159 -325 41 -80 116 -128 203 -128
135 -1 231 94 231 227 0 107 -61 190 -162 220 -56 16 -67 17 -113 6z m83 -193
c28 -28 7 -78 -33 -78 -27 0 -45 18 -45 45 0 27 18 45 45 45 12 0 26 -5 33
-12z m-100 -145 c-16 -24 -33 -43 -39 -43 -17 0 -59 48 -54 62 3 8 24 26 47
40 l41 27 17 -22 c17 -21 17 -23 -12 -64z"/>
<path d="M1360 795 c-172 -70 -180 -78 -180 -190 0 -79 2 -85 29 -112 27 -28
275 -133 312 -133 36 0 39 20 39 245 0 232 -3 245 -44 245 -12 -1 -82 -25
-156 -55z"/>
<path d="M559 754 c-18 -20 -56 -48 -84 -62 -43 -23 -63 -26 -140 -27 -49 0
-102 4 -117 9 l-28 8 0 -220 c0 -201 2 -222 19 -243 l19 -24 419 -3 c413 -3
420 -2 446 18 l27 21 0 230 c0 215 -1 230 -17 225 -128 -38 -240 -34 -339 13
-36 17 -83 44 -104 61 -21 16 -44 30 -52 30 -8 0 -30 -16 -49 -36z"/>
</g>
</svg>
